<?xml version="1.0" encoding="UTF-8"?>
<svg id="Layer_1" data-name="Layer 1" xmlns="http://www.w3.org/2000/svg" width="16" height="16" viewBox="0 0 16 16">
  <defs>
    <style>
      .cls-1 {
        fill: #ffa1cd;
      }

      .cls-2 {
        fill: #424242;
      }
    </style>
  </defs>
  <path class="cls-1" d="m12.53,6.99v2.43c0,1.13-.46,2.37-1.2,4.29-.13.33-.2,1.05-.23,1.51h-6.32c-.19-1.05-1-4.36-3.93-8.04-.08-.11-.1-.21-.05-.32.06-.14.25-.3.57-.32.31-.02,1.12.1,1.96,1.54l.72,1.23V1.53c0-.19.06-.37.16-.5.14-.18.34-.26.61-.25h.02c.43.02.77.37.77.81v5.71h.78v-2.93c0-.17.32-.27.62-.27.39,0,.94.18.94.55v2.65h.78v-2.14c0-.18.43-.18.45-.18.52,0,1.11.3,1.11.68v2.43h.78v-1.59c0-.17.34-.18.41-.18.43,0,1.04.27,1.04.68Z"/>
  <g>
    <path class="cls-2" d="m8.74,4.64v2.65h-.78v-2.65c0-.37-.55-.54-.94-.55-.31,0-.62.1-.62.27l-.78-.02c0-.45.3-.78.78-.94.18-.06.39-.09.61-.09h.02c.9,0,1.46.44,1.64.95.04.12.07.25.07.37Z"/>
    <path class="cls-2" d="m11.08,5.65v2.43h-.78v-2.43c0-.39-.59-.68-1.11-.68-.02,0-.44,0-.45.18,0,0,0,0,0,0l-.78-.02c0-.42.28-.73.71-.87.16-.05.33-.08.52-.07.88,0,1.83.54,1.88,1.39,0,.02,0,.05,0,.07Z"/>
    <path class="cls-2" d="m13.3,6.99v2.43c0,1.27-.48,2.57-1.25,4.57-.09.24-.17,1.11-.2,1.64l-.02.37h-7.73l-.04-.34s-.12-.96-.65-2.41c-.49-1.34-1.43-3.39-3.17-5.58-.26-.33-.32-.75-.15-1.12.2-.45.67-.74,1.24-.77.8-.04,1.47.43,1.95.94V1.53c0-.37.12-.72.34-.99C3.83.29,4.2-.02,4.85,0h.04c.85.03,1.51.73,1.51,1.58v5.71h-.78V1.58c0-.44-.34-.79-.77-.81h-.02c-.27,0-.47.08-.61.25-.11.13-.16.31-.16.5v7.79l-.72-1.23c-.84-1.44-1.65-1.55-1.96-1.54-.32.02-.51.18-.57.32-.05.11-.03.22.05.32,2.92,3.68,3.73,6.99,3.93,8.04h6.32c.03-.46.1-1.19.23-1.51.74-1.92,1.2-3.15,1.2-4.29v-2.43c0-.42-.61-.68-1.04-.68-.07,0-.4,0-.41.18,0,0,0,0,0,0l-.78-.02c0-.45.31-.77.77-.89.12-.03.26-.05.4-.05h.02c.87,0,1.81.57,1.81,1.46Z"/>
  </g>
</svg>